<svg id="Layer_1" data-name="Layer 1" xmlns="http://www.w3.org/2000/svg" viewBox="0 0 462.53 130.61"><defs><style>.cls-1,.cls-2{fill:#fff;}.cls-2{opacity:0.7;}</style></defs><title>Trusted Care white logo</title><path class="cls-1" d="M96.51,83a11.7,11.7,0,0,1,7-2.62h1.42v9.48h11.4v4.74c0,3.33-3.54,5.88-6.58,5.88h-4.81v14.09a3.89,3.89,0,0,0,4.25,4.18,15.14,15.14,0,0,0,6.09-.85h.35v5.24c0,3.26-3,6.23-10,6.23-6.65,0-13.8-3.19-13.8-13.87V91.36C91.84,87.82,93.89,85,96.51,83Z" transform="translate(-3.87 -6.55)"/><path class="cls-1" d="M141.25,99.93a12.13,12.13,0,0,0-4.74-.78c-3.26,0-5.8,1.63-5.8,6.37V128.8H127c-5.8,0-9.34-2.69-9.34-9.2V102.69c0-7.86,5.31-14.09,14.16-14.09,6.72,0,9.84,2.76,9.84,6.37v5Z" transform="translate(-3.87 -6.55)"/><path class="cls-1" d="M163.61,129.94c-12.6,0-19.46-6.16-19.46-18.62V89.87h5.24c5.87,0,8.42,2,8.42,7.93v13.87c0,5.73,2.69,7.5,6.37,7.5,3.19,0,5.73-1.84,5.73-8V89.87h5.24c5.38,0,8.35,2.27,8.35,7.93v13.87C183.5,124.13,175.57,129.94,163.61,129.94Z" transform="translate(-3.87 -6.55)"/><path class="cls-1" d="M201.5,129.94c-10.62,0-14.44-3.89-14.44-9.55v-3.89h.35c2.55,1.91,6.44,3.4,12,3.4,4.88,0,6.44-1.13,6.44-3s-.92-2.48-9-3.61c-7-1-10.69-4.18-10.69-10.4,0-9.34,8.85-14.09,17.77-14.09,8.64,0,13.87,3.47,13.87,9.27v4h-.36c-2.62-1.91-6.72-3.26-12-3.26-5,0-6.65,1.35-6.65,3s.85,2,9,3.33c6.51,1.06,10.9,4.6,10.9,11.19C218.7,124.63,212.19,129.94,201.5,129.94Z" transform="translate(-3.87 -6.55)"/><path class="cls-1" d="M226.7,83a11.7,11.7,0,0,1,7-2.62h1.42v9.48h11.4v4.74c0,3.33-3.54,5.88-6.58,5.88h-4.81v14.09a3.89,3.89,0,0,0,4.25,4.18,15.14,15.14,0,0,0,6.09-.85h.35v5.24c0,3.26-3,6.23-10,6.23-6.65,0-13.8-3.19-13.8-13.87V91.36C222,87.82,224.08,85,226.7,83Z" transform="translate(-3.87 -6.55)"/><path class="cls-1" d="M265.78,114.15H260c.78,3.89,4,5.73,9.55,5.73,6.23,0,10.12-1,12.32-2.48h.49v3.12c0,5-4,9.41-15.15,9.41-13.45,0-20.53-9.06-20.53-19.82,0-11.82,8-21.45,20-21.45,10.19,0,18.12,5.73,18.12,15.64C284.82,112.1,278.94,114.15,265.78,114.15Zm.92-15.43c-4.74,0-6.72,3-7.08,6.79h5.24c6.37,0,7.5-1,7.5-2.69C272.36,100.85,270.59,98.72,266.7,98.72Z" transform="translate(-3.87 -6.55)"/><path class="cls-1" d="M307,129.94a20.29,20.29,0,0,1-20.31-20c0-13.09,8.07-21.24,18.4-21.24,5,0,8.63,2.2,10.05,5.24V76.43h4.81c5.38,0,8.28,2.83,8.28,9.41v22.58C328.21,122.51,322.48,129.94,307,129.94Zm-.28-30.79c-3.61,0-6.65,3.75-6.65,9.7,0,7.64,3.54,10.76,8.42,10.76,4.18,0,6.37-3.26,6.37-9.34C314.83,101.55,311.5,99.15,306.69,99.15Z" transform="translate(-3.87 -6.55)"/><path class="cls-2" d="M363.53,102.61c-1.2-1.27-4.88-2.69-8.63-2.69-6.58,0-10.26,3.33-10.26,8.78,0,6.65,3.68,9.77,9.63,9.77a18.13,18.13,0,0,0,9.41-2.19h.14v4c0,5.17-5.31,9.34-12.39,9.34-11.82,0-20.24-8-20.24-20.17,0-11.11,7.71-20.67,21.45-20.67,6.16,0,11.25,4,11.25,9.06v4.74Z" transform="translate(-3.87 -6.55)"/><path class="cls-2" d="M382.58,129.87c-7.5,0-16.63-3.54-16.63-12.39,0-8.64,6.23-13,20.38-13h1.91v-1.63c0-3.19-2.48-4-7.79-4-7.29,0-10,1.7-12.74,4.25h-.35V98.37c0-4.81,5-9.63,16.14-9.63,10.76,0,17.77,5.45,17.77,16.92v6C401.27,125.83,396.74,129.87,382.58,129.87Zm5.95-17.06h-2.69c-5.1,0-7.15,1.27-7.15,3.89s1.56,3.75,5.31,3.75c2.41,0,4.53-1.2,4.53-4.74Z" transform="translate(-3.87 -6.55)"/><path class="cls-2" d="M428.52,99.93a12.13,12.13,0,0,0-4.74-.78c-3.26,0-5.8,1.63-5.8,6.37V128.8H414.3c-5.8,0-9.34-2.69-9.34-9.2V102.69c0-7.86,5.31-14.09,14.16-14.09,6.72,0,9.84,2.76,9.84,6.37v5Z" transform="translate(-3.87 -6.55)"/><path class="cls-2" d="M447.35,114.15h-5.8c.78,3.89,4,5.73,9.55,5.73,6.23,0,10.12-1,12.32-2.48h.49v3.12c0,5-4,9.41-15.15,9.41-13.45,0-20.53-9.06-20.53-19.82,0-11.82,8-21.45,20-21.45,10.19,0,18.12,5.73,18.12,15.64C466.39,112.1,460.52,114.15,447.35,114.15Zm.92-15.43c-4.74,0-6.72,3-7.08,6.79h5.24c6.37,0,7.5-1,7.5-2.69C453.94,100.85,452.17,98.72,448.27,98.72Z" transform="translate(-3.87 -6.55)"/><path class="cls-1" d="M124.17,6.55l-79,126c-4,6.32-10,6.06-13.39-.58L5.43,80.6C2,74,4.37,71.83,10.65,75.87L28.51,87.35a17.16,17.16,0,0,0,20.78-2.47L124.17,6.55" transform="translate(-3.87 -6.55)"/><circle class="cls-1" cx="34.04" cy="59.56" r="14.04"/></svg>