<?xml version="1.0" encoding="UTF-8" standalone="no"?>
<svg
   xmlns:dc="http://purl.org/dc/elements/1.1/"
   xmlns:cc="http://creativecommons.org/ns#"
   xmlns:rdf="http://www.w3.org/1999/02/22-rdf-syntax-ns#"
   xmlns:svg="http://www.w3.org/2000/svg"
   xmlns="http://www.w3.org/2000/svg"
   xmlns:xlink="http://www.w3.org/1999/xlink"
   id="svg33"
   version="1.1"
   viewBox="0 0 60 60"
   height="60"
   width="60">
  <metadata
     id="metadata37">
    <rdf:RDF>
      <cc:Work
         rdf:about="">
        <dc:format>image/svg+xml</dc:format>
        <dc:type
           rdf:resource="http://purl.org/dc/dcmitype/StillImage" />
        <dc:title>Logo</dc:title>
      </cc:Work>
    </rdf:RDF>
  </metadata>
  <title
     id="title2">Logo</title>
  <desc
     id="desc4">Created using Figma</desc>
  <g
     style="fill:#334144;fill-opacity:1"
     transform="translate(-988 -676)"
     id="Canvas">
    <g
       style="fill:#334144;fill-opacity:1"
       id="Logo">
      <g
         style="fill:#334144;fill-opacity:1"
         id="Ellipse 2">
        <mask
           id="mask0_outline_ins">
          <use
             id="use6"
             transform="matrix(-0.707107 -0.707107 -0.707107 0.707107 1058 693.383)"
             fill="white"
             xlink:href="#path0_fill" />
        </mask>
        <g
           style="fill:#334144;fill-opacity:1"
           id="g11"
           mask="url(#mask0_outline_ins)">
          <use
             style="fill:#334144;fill-opacity:1"
             id="use9"
             fill="#FFFFFF"
             transform="matrix(-0.707107 -0.707107 -0.707107 0.707107 1058 693.383)"
             xlink:href="#path1_stroke_2x" />
        </g>
      </g>
      <g
         style="fill:#334144;fill-opacity:1"
         id="g21">
        <mask
           id="mask1_outline_ins">
          <use
             id="use14"
             transform="matrix(0.707107 -0.707107 -0.707107 -0.707107 1030.62 746)"
             fill="white"
             xlink:href="#path0_fill" />
        </mask>
        <g
           style="fill:#334144;fill-opacity:1"
           id="g19"
           mask="url(#mask1_outline_ins)">
          <use
             style="fill:#334144;fill-opacity:1"
             id="use17"
             fill="#FFFFFF"
             transform="matrix(0.707107 -0.707107 -0.707107 -0.707107 1030.62 746)"
             xlink:href="#path1_stroke_2x" />
        </g>
      </g>
      <g
         style="fill:#334144;fill-opacity:1"
         id="M">
        <use
           style="fill:#334144;fill-opacity:1"
           id="use23"
           fill="#FFFFFF"
           transform="matrix(-1 0 0 1 1028.42 695.862)"
           xlink:href="#path2_fill" />
      </g>
    </g>
  </g>
  <defs
     id="defs31">
    <path
       d="M 38.7248 37.2062C 38.7248 57.7545 30.0559 74.4123 19.3624 74.4123C 8.66883 74.4123 0 57.7545 0 37.2062C 0 16.6578 8.66883 0 19.3624 0C 30.0559 0 38.7248 16.6578 38.7248 37.2062Z"
       id="path0_fill" />
    <path
       d="M 37.7248 37.2062C 37.7248 47.3531 35.5823 56.4898 32.1666 63.0532C 28.7254 69.6657 24.1473 73.4123 19.3624 73.4123L 19.3624 75.4123C 25.271 75.4123 30.3741 70.83 33.9407 63.9765C 37.5329 57.074 39.7248 47.6076 39.7248 37.2062L 37.7248 37.2062ZM 19.3624 73.4123C 14.5775 73.4123 9.99936 69.6657 6.55818 63.0532C 3.14251 56.4898 1 47.3531 1 37.2062L -1 37.2062C -1 47.6076 1.19191 57.074 4.78404 63.9765C 8.35067 70.83 13.4537 75.4123 19.3624 75.4123L 19.3624 73.4123ZM 1 37.2062C 1 27.0592 3.14251 17.9225 6.55818 11.3591C 9.99936 4.74661 14.5775 1 19.3624 1L 19.3624 -1C 13.4537 -1 8.35067 3.58227 4.78404 10.4358C 1.19191 17.3383 -1 26.8047 -1 37.2062L 1 37.2062ZM 19.3624 1C 24.1473 1 28.7254 4.74661 32.1666 11.3591C 35.5823 17.9225 37.7248 27.0592 37.7248 37.2062L 39.7248 37.2062C 39.7248 26.8047 37.5329 17.3383 33.9407 10.4358C 30.3741 3.58227 25.271 -1 19.3624 -1L 19.3624 1Z"
       id="path1_stroke_2x" />
    <path
       d="M 21.2941 0.738049C 21.4399 1.0114 21.5219 1.25742 21.5401 1.4761C 21.5765 1.69478 21.5948 2.01369 21.5948 2.43283L 21.5948 17.6038C 21.5948 18.8612 21.2485 19.5993 20.556 19.818C 20.2098 19.9273 19.7724 19.982 19.2439 19.982C 18.7155 19.982 18.2963 19.9364 17.9865 19.8453C 17.6767 19.7542 17.4398 19.6448 17.2758 19.5173C 17.1118 19.3897 16.9842 19.2075 16.8931 18.9706C 16.802 18.6608 16.7564 18.187 16.7564 17.5492L 16.7564 8.39189C 16.3008 8.95681 15.6357 9.85887 14.761 11.0981C 13.8862 12.319 13.3304 13.0844 13.0935 13.3942C 12.8566 13.704 12.6926 13.9227 12.6015 14.0503C 12.5104 14.1596 12.2826 14.3236 11.9181 14.5423C 11.5719 14.7427 11.1892 14.843 10.77 14.843C 10.3691 14.843 9.99555 14.7519 9.6493 14.5696C 9.32128 14.3692 9.08438 14.1778 8.93859 13.9956L 8.71991 13.6949C 8.35544 13.2393 7.63561 12.2735 6.56043 10.7974C 5.48525 9.30306 4.9021 8.50123 4.81098 8.39189L 4.81098 17.6038C 4.81098 18.023 4.79276 18.3419 4.75631 18.5606C 4.73809 18.761 4.65608 18.9888 4.5103 19.2439C 4.23695 19.736 3.52623 19.982 2.37816 19.982C 1.26653 19.982 0.574038 19.736 0.300686 19.2439C 0.154899 18.9888 0.063782 18.7519 0.0273351 18.5332C 0.00911171 18.3145 0 17.9865 0 17.5492L 0 2.37816C 0 1.95902 0.00911171 1.64922 0.0273351 1.44876C 0.063782 1.23008 0.154899 0.984065 0.300686 0.710713C 0.574038 0.236904 1.28475 0 2.43283 0C 2.92486 0 3.344 0.063782 3.69024 0.191346C 4.05471 0.300686 4.29162 0.419139 4.40096 0.546703L 4.56497 0.710713L 10.77 8.85658C 13.868 4.75631 15.9364 2.05013 16.9751 0.738049C 17.2849 0.246016 18.0139 0 19.1619 0C 20.3282 0 21.0389 0.246016 21.2941 0.738049Z"
       id="path2_fill" />
  </defs>
</svg>
