<svg xmlns="http://www.w3.org/2000/svg" id="Layer_1" data-name="Layer 1" viewBox="0 0 400 46"><defs><style>.cls-1{fill:#fff;}</style></defs><path d="M37.6 46H36V2.6L19.4 29h-1.2L1.6 2.6V46H0V0h1.8l17 27 17-27h1.8zM90 46h-1.6l-6-15.3h-23l-6 15.3h-1.6L70 0h1.8zM60 29.3h21.8L70.8 2zM106 2.5V46h-1.7V0h1.7l29.2 42.5V0h1.7v46h-1.2zM183.7 23h-26v23H156V0h1.6v21.5h26V0h1.7v46h-1.6zM237.8 46H236l-6-15.3h-22.8l-6 15.3h-1.8l18.3-46h1.8zm-30.2-16.7h22L218.5 2zM258 46h-1.6V1.4h-15V0H273v1.4h-15zM296.5 46H295V1.4h-15V0h31.5v1.4h-15zM353.3 46h-1.8l-6-15.3h-22.8L316.5 46H315L333 0h1.8zM323 29.3h22L334 2zM369 2.5V46h-1.6V0h1.7l29.4 42.5V0h1.6v46h-1z" class="cls-1"/></svg>