<svg xmlns="http://www.w3.org/2000/svg" xmlns:xlink="http://www.w3.org/1999/xlink" width="200" height="200">
  <g fill="#fff" transform="translate(0 47)">
    <use width="100%" height="100%" xlink:href="#path0_fill"/>
    <use width="100%" height="100%" xlink:href="#path1_fill"/>
  </g>
  <defs id="defs14">
    <path id="path0_fill" d="M40 10.4l-38.3 67a13 13 0 0 0-.3 12.4 13 13 0 0 0 20.9 3.4l39.9-40a14.8 14.8 0 0 1 23.7 3.9 14.8 14.8 0 0 0 26.5 0l.7-1.6a15.7 15.7 0 0 1 23.5-5.5l15.6 11.7c7.4 5.5 18 3 22-5.2a14.8 14.8 0 0 0 0-13.2l-16-32.3a19.9 19.9 0 0 0-9-8.9 19.9 19.9 0 0 0-26 7.6l-2.5 4.2a25.2 25.2 0 0 1-43.2 0L75.2 10a20.4 20.4 0 0 0-26.6-7.8 20.4 20.4 0 0 0-8.6 8.1z"/>
    <path id="path1_fill" d="M200 86a11.2 11.2 0 1 1-22.4 0 11.2 11.2 0 0 1 22.4 0z"/>
  </defs>
</svg>
